<?xml version="1.0" encoding="UTF-8"?>
<!DOCTYPE svg PUBLIC "-//W3C//DTD SVG 1.1//EN" "http://www.w3.org/Graphics/SVG/1.1/DTD/svg11.dtd">
<!-- Creator: CorelDRAW Home & Student X7 -->
<svg xmlns="http://www.w3.org/2000/svg" xml:space="preserve" width="28.1316cm" height="14.0166cm" version="1.1" style="shape-rendering:geometricPrecision; text-rendering:geometricPrecision; image-rendering:optimizeQuality; fill-rule:evenodd; clip-rule:evenodd"
viewBox="0 0 281957 140485"
 xmlns:xlink="http://www.w3.org/1999/xlink">
 <defs>
  <style type="text/css">
   <![CDATA[
    .fil0 {fill:#4D4D4D}
   ]]>
  </style>
 </defs>
 <g id="Layer_x0020_1">
  <metadata id="CorelCorpID_0Corel-Layer"/>
  <path class="fil0" d="M235317 133233c1425,-20623 -16057,-59156 -63302,-60623 -37033,-1149 -61645,34621 -62174,61187 5031,-18142 1035,-1030 782,-769 1266,-18551 20024,-54970 62378,-55888 38227,-829 58605,29012 62316,56093z"/>
  <path class="fil0" d="M268507 47121l-1098 3315c-3465,-8234 -28350,-13765 -38838,-11098 -736,-536 -974,-1016 -1976,-2009 7338,-5252 38033,580 41912,9792z"/>
  <path class="fil0" d="M269228 43797l-428 1974c-3999,-9502 -36530,-15407 -42533,-9262l387 -1935c5894,-6212 38564,-301 42574,9223z"/>
  <path class="fil0" d="M252895 133075c1825,-26406 -20558,-75742 -81049,-77619 -47415,-1472 -78927,44327 -79605,78341 6442,-23228 1326,-1319 1001,-985 1622,-23752 25638,-70381 79867,-71557 48944,-1061 75035,37146 79786,71820z"/>
  <path class="fil0" d="M239500 77912c-6415,-22093 -16837,-25118 -22238,-29904 -2916,-2870 -6853,-4514 -16420,-6968 -5555,-1425 -50353,-1176 -58430,422 -10254,2029 -13998,5187 -15333,6449 -8008,10445 -15770,15382 -19583,31163 -20886,309 -28703,4771 -34637,8466 -3810,-5078 -9914,-6514 -13703,-6768 -19079,-1281 -26625,-611 -39934,4617 19168,-4234 31001,-830 35690,-249 4459,553 14601,3014 13712,6768 -1249,1568 -1735,2171 -3675,8338 -1560,4956 598,23125 -175,26771 -5256,-5466 -13264,-5435 -23567,-3603 18545,235 23064,5012 23044,5690 -185,6063 -380,10822 -548,11381 3699,-17757 4814,-37616 5494,-40665 2174,-9755 17116,-17861 37846,-19056 6318,-17563 14621,-24659 20939,-30506 28942,4964 57884,5626 86826,0 3700,-1440 16856,7389 24692,27654z"/>
  <path class="fil0" d="M29003 47616c-19199,3242 -26807,17970 -29003,50621 3585,-6587 570,-8781 4895,-17356 9753,-19336 66174,2927 67719,-18918 1598,-22625 -42974,-11370 -53823,-6779 16686,-5636 45607,-7281 46686,6383 694,8798 -48502,11690 -30934,-5377 -6035,-923 -7873,878 -13207,1540 -10123,5781 -12875,18207 -16516,21724 721,-2553 1613,-10415 9699,-22068 2985,-4301 7248,-5606 11115,-6231l3369 -3539z"/>
  <path class="fil0" d="M61577 45255c14332,-1472 23931,674 23243,5383 3924,-717 15499,-3465 25309,-5066 7723,-1260 11949,-10959 17989,-20468 3485,-5487 10285,-8899 16507,-8898l55328 4c8296,1 14833,6577 16792,11502 3806,9575 4962,18490 19707,23129 10053,3164 15259,4839 23483,7322 6694,2021 15753,5724 22022,38449 -1560,-16101 -3056,-36967 -19943,-43345 -7385,-2790 -14369,-5369 -21456,-7304 -17670,-4824 -17449,-11290 -21237,-18860 -5796,-11583 -8296,-21227 -24457,-21452 -68,-1402 -20,-2422 -1004,-3402 -868,-865 -2568,-647 -3466,-688 -772,-1313 -2413,-1561 -4458,-1561l-27408 0c-2090,0 -4322,24 -4720,1975 -1496,205 -2143,38 -3080,129 -1635,157 -222,3098 -1040,3070 -13849,1033 -17450,3928 -23089,15900 -4941,10489 -11281,17557 -24646,18750 -9423,842 -29263,2681 -45836,4462 3461,-368 4350,560 5460,969z"/>
  <path class="fil0" d="M208173 133477c808,-11695 -9105,-33546 -35897,-34378 -21000,-651 -34957,19633 -35257,34698 2853,-10288 587,-584 443,-436 718,-10520 11355,-31172 35373,-31693 21678,-470 33234,16452 35338,31809z"/>
 </g>
</svg>
